<svg width="100%" height="100%" viewBox="0 0 120 120" version="1.1" xmlns="http://www.w3.org/2000/svg">
    <g transform="matrix(1,0,0,1,-1992,-435)">
        <g id="Artboard3" transform="matrix(0.645161,0,0,0.625,728.129,185)">
            <rect x="1959" y="400" width="186" height="192" style="fill:none;"/>
            <g transform="matrix(1,0,0,1,3.1,0)">
                <g id="hand-horns-light.svg" transform="matrix(0.19375,0,0,0.2,2048.9,470.4)">
                    <g transform="matrix(1,0,0,1,-224,-256)">
                        <path d="M360,64C329.12,64 304,89.12 304,120L304,181.62C296.7,178.1 288.6,176 280,176C267.84,176 256.65,180.002 247.46,186.62C237.6,170.7 220.1,160 200,160C191.4,160 183.3,162.1 176,165.6L176,56C176,25.12 150.9,0 120,0C89.1,0 64,25.12 64,56L64,266.2C36.07,273.5 16,298.9 16,328L16,392C16,411.89 25,430.3 40.72,442.52L86.75,478.33C114.7,500 149.6,512 184.9,512L264,512C347.81,512 416,443.81 416,360L416,120C416,89.13 390.9,64 360,64ZM280,208C293.22,208 304,218.77 304,232L304,328C304,341.23 293.22,352 280,352C266.78,352 256,341.2 256,328L256,232C256,218.8 266.8,208 280,208ZM200,192C213.2,192 224,202.8 224,216L224,248.99C214.3,243.3 203.1,240.1 191.5,240.1C187.257,240.1 182.952,240.531 178.63,241.434L176,241.1L176,216C176,202.8 186.8,192 200,192ZM120,32C133.2,32 144,42.77 144,56L144,248.8L96,259.1L96,56C96,42.77 106.8,32 120,32ZM384,360C384,426.17 330.16,480 264,480L184.9,480C156.62,480 128.71,470.438 106.34,453.06L60.31,417.26C52.63,411.3 48,401.8 48,392L48,328C48,313 58.62,299.84 73.28,296.7L185.18,272.72C187.375,272.267 189.567,272.049 191.73,272.049C207.54,272.049 223.96,284.519 223.96,304.039C223.96,318.789 213.67,332.079 198.68,335.299L124.62,351.159C117.092,352.762 111.95,359.399 111.95,366.789C111.95,376.391 120.016,382.819 127.95,382.819C129.062,382.819 130.186,382.698 131.305,382.447L205.365,366.587C215.041,364.511 223.585,360.179 230.925,354.487C240.5,371.1 258.8,384 280,384C310.88,384 336,358.88 336,328L336,232C336,230.176 335.633,228.453 335.461,226.674C335.6,225.8 336,224.9 336,224L336,120C336,106.8 346.8,96 360,96C373.2,96 384,106.8 384,120L384,360Z" style="fill-rule:nonzero;"/>
                    </g>
                </g>
                <g transform="matrix(1.39059,0,0,1.43544,-1402.18,-976.469)">
                    <text x="2424.45px" y="1079px" style="font-family:'IBMPlexSans-Bold', 'IBM Plex Sans', sans-serif;font-weight:700;font-size:24.701px;">R<tspan x="2440.85px " y="1079px ">O</tspan>CK</text>
                    <text x="2491.76px" y="1079px" style="font-family:'AppleSDGothicNeo-Bold', 'Apple SD Gothic Neo';font-weight:700;font-size:24.701px;">・</text>
                    <text x="2499.24px" y="1079px" style="font-family:'IBMPlexSans-Bold', 'IBM Plex Sans', sans-serif;font-weight:700;font-size:24.701px;">P</text>
                    <text x="2515.45px" y="1079px" style="font-family:'AppleSDGothicNeo-Bold', 'Apple SD Gothic Neo';font-weight:700;font-size:24.701px;">・</text>
                    <text x="2522.93px" y="1079px" style="font-family:'IBMPlexSans-Bold', 'IBM Plex Sans', sans-serif;font-weight:700;font-size:24.701px;">S</text>
                </g>
            </g>
        </g>
    </g>
</svg>
